<svg width="33" height="33" viewBox="0 0 33 33" fill="none" xmlns="http://www.w3.org/2000/svg">
<path d="M8.9576 20.1374L5.18636 23.9088L9.9004 28.6228L27.8138 10.7094L23.0997 5.99532L20.2713 8.82375L22.1569 10.7094L20.2713 12.595L18.3857 10.7094L15.5573 13.5378L18.3857 16.3662L16.5001 18.2518L13.6716 15.4234L10.8432 18.2518L12.7288 20.1374L10.8432 22.023L8.9576 20.1374ZM24.0425 3.1669L30.6422 9.76656C31.1629 10.2873 31.1629 11.1315 30.6422 11.6522L10.8432 31.4512C10.3225 31.9718 9.4783 31.9718 8.9576 31.4512L2.35794 24.8516C1.83723 24.3308 1.83723 23.4866 2.35794 22.966L22.1569 3.1669C22.6776 2.64619 23.5218 2.64619 24.0425 3.1669Z" fill="#969696"/>
</svg>
