<svg width="32" height="33" viewBox="0 0 32 33" fill="none" xmlns="http://www.w3.org/2000/svg">
<path d="M18.6672 8.50008C18.6672 9.97284 17.4732 11.1667 16.0005 11.1667C14.5277 11.1667 13.3339 9.97284 13.3339 8.50008C13.3339 7.02732 14.5277 5.83341 16.0005 5.83341C17.4732 5.83341 18.6672 7.02732 18.6672 8.50008ZM20.6203 11.1667C21.0741 10.3823 21.3339 9.47151 21.3339 8.50008C21.3339 5.55456 18.946 3.16675 16.0005 3.16675C13.055 3.16675 10.6671 5.55456 10.6671 8.50008C10.6671 9.47151 10.9269 10.3823 11.3807 11.1667H6.75487C6.10518 11.1667 5.55007 11.635 5.4406 12.2754L2.93347 26.9421C2.79427 27.7565 3.42158 28.5001 4.24775 28.5001H27.7532C28.5793 28.5001 29.2067 27.7565 29.0675 26.9421L26.5604 12.2754C26.4509 11.635 25.8957 11.1667 25.2461 11.1667H20.6203ZM16.0005 13.8334H24.1213L26.1727 25.8334H5.82834L7.87962 13.8334H16.0005Z" fill="#616060"/>
</svg>
