<svg width="195" height="196" viewBox="0 0 195 196" fill="none" xmlns="http://www.w3.org/2000/svg">
<path fill-rule="evenodd" clip-rule="evenodd" d="M137.637 109.626L195 106.973C190.47 156.894 148.504 196.005 97.4026 196.005C49.4056 196.005 9.46734 161.501 1.0388 115.944L58.7771 113.274C65.8382 127.458 80.4824 137.203 97.4027 137.203C115.738 137.203 131.4 125.76 137.637 109.626ZM138.406 80.6966L193.394 78.1533C184.218 33.5442 144.728 0 97.4026 0C46.9632 0 5.42369 38.1047 0 87.098L55.3414 84.5384C59.6845 65.3159 76.8672 50.9612 97.4027 50.9612C116.545 50.9612 132.774 63.4344 138.406 80.6966ZM97.403 121.523C112.558 121.523 124.844 109.238 124.844 94.0826C124.844 78.9275 112.558 66.6419 97.403 66.6419C82.248 66.6419 69.9624 78.9275 69.9624 94.0826C69.9624 109.238 82.248 121.523 97.403 121.523Z" fill="white"/>
</svg>
